<?xml version="1.0" standalone="no"?>
<!DOCTYPE svg PUBLIC "-//W3C//DTD SVG 20010904//EN"
 "http://www.w3.org/TR/2001/REC-SVG-20010904/DTD/svg10.dtd">
<svg version="1.0" xmlns="http://www.w3.org/2000/svg"
 width="500.000000pt" height="500.000000pt" viewBox="0 0 500.000000 500.000000"
 preserveAspectRatio="xMidYMid meet">

<g transform="translate(0.000000,500.000000) scale(0.100000,-0.100000)"
fill="#000000" stroke="none">
<path d="M2265 4634 c-605 -78 -1175 -436 -1511 -949 -439 -672 -471 -1531
-83 -2231 332 -597 913 -994 1597 -1088 130 -18 406 -21 532 -6 490 61 933
275 1277 620 362 362 581 843 624 1368 43 527 -143 1110 -486 1521 -364 438
-867 708 -1430 771 -125 14 -388 11 -520 -6z m597 -877 c699 -184 1117 -878
946 -1567 -112 -447 -457 -805 -901 -934 -114 -33 -215 -46 -361 -46 -353 0
-681 140 -925 395 -237 249 -361 555 -361 893 0 138 12 224 51 362 95 336 332
623 650 789 210 109 356 142 619 137 160 -3 198 -7 282 -29z"/>
<path d="M2176 3294 c-6 -30 -14 -38 -54 -55 -45 -20 -48 -20 -80 -3 l-33 18
-68 -68 -69 -68 19 -33 c19 -32 19 -33 -1 -78 -17 -39 -26 -47 -55 -53 l-35
-6 0 -99 0 -98 33 -9 c25 -6 37 -18 55 -55 22 -46 22 -49 5 -77 l-17 -30 57
-58 c52 -53 57 -61 57 -102 0 -54 29 -121 66 -155 l27 -25 -44 -19 c-153 -66
-245 -223 -238 -406 4 -77 7 -87 32 -112 27 -28 29 -28 171 -31 112 -3 151 0
172 11 25 13 31 13 50 0 18 -11 53 -14 168 -11 144 3 146 3 173 31 25 24 28
36 32 109 8 185 -87 347 -241 411 l-37 16 31 33 c38 40 58 86 58 131 0 31 4
35 31 41 58 11 59 11 59 -56 1 -127 41 -226 131 -322 227 -243 620 -188 771
108 168 331 -82 715 -451 693 -51 -3 -108 -13 -138 -25 l-53 -20 0 62 0 62
-36 10 c-31 8 -39 16 -54 54 -17 43 -17 46 1 76 l18 30 -69 69 -69 69 -33 -18
c-32 -17 -35 -17 -79 3 -40 18 -48 26 -53 56 l-7 35 -98 0 -99 0 -6 -36z m210
-199 c45 -18 112 -82 136 -129 62 -121 14 -281 -105 -350 -56 -32 -73 -33
-130 -7 -36 17 -63 22 -102 19 -66 -4 -98 17 -138 90 -104 191 48 420 263 395
25 -3 59 -11 76 -18z m564 -330 c0 -52 1 -55 25 -55 24 0 25 3 25 56 l0 56 48
-7 c52 -7 136 -42 183 -76 l31 -22 -38 -38 c-37 -38 -37 -39 -19 -59 l19 -21
38 38 39 38 20 -25 c34 -44 70 -129 76 -181 l6 -49 -52 0 c-48 0 -51 -2 -51
-25 0 -23 3 -25 50 -25 l50 0 0 -35 c0 -46 -33 -133 -71 -185 l-31 -42 -37 36
c-35 34 -38 35 -54 19 -16 -16 -15 -19 20 -55 36 -37 36 -38 17 -53 -37 -29
-130 -73 -170 -80 -21 -4 -47 -9 -56 -12 -16 -4 -18 3 -18 51 0 53 -1 56 -25
56 -24 0 -25 -3 -25 -55 l0 -54 -32 5 c-85 15 -218 77 -218 102 0 5 14 21 30
37 34 32 37 47 15 65 -13 11 -22 7 -54 -24 l-38 -38 -22 31 c-35 48 -70 134
-77 184 l-7 47 52 0 c48 0 51 2 51 25 0 23 -3 25 -51 25 l-52 0 7 40 c10 63
43 142 75 180 l29 35 36 -35 c34 -32 37 -33 53 -17 16 16 15 19 -20 55 l-36
37 48 33 c49 34 147 70 189 71 20 1 22 -3 22 -54z m-662 -212 c72 -53 92 -139
51 -213 -79 -140 -299 -81 -299 79 0 65 40 125 100 150 37 16 117 7 148 -16z
m-32 -353 c19 0 34 -3 34 -8 0 -4 -20 -30 -45 -57 l-45 -50 -45 50 c-24 28
-45 53 -45 57 0 7 77 16 98 11 8 -2 29 -3 48 -3z m-130 -110 c38 -44 71 -80
74 -80 3 0 36 36 74 80 37 44 70 80 73 80 17 0 66 -36 107 -79 68 -73 89 -127
94 -239 6 -132 6 -132 -163 -132 -143 0 -160 6 -153 52 3 22 7 23 118 28 115
5 115 5 115 30 0 20 -6 26 -27 28 -26 3 -28 6 -28 53 0 46 -2 49 -25 49 -23 0
-25 -3 -25 -50 l0 -50 -42 0 c-24 -1 -60 -7 -80 -14 -32 -11 -44 -11 -75 0
-21 7 -57 13 -80 14 l-43 0 0 50 c0 47 -2 50 -25 50 -23 0 -25 -3 -25 -49 0
-47 -2 -50 -27 -53 -22 -2 -28 -8 -28 -28 0 -25 0 -25 115 -30 111 -5 115 -6
118 -28 7 -46 -11 -52 -149 -52 -118 0 -131 2 -150 21 -20 20 -21 30 -17 113
6 105 33 173 96 240 34 36 89 76 103 76 4 0 38 -36 75 -80z"/>
<path d="M2237 2996 c-83 -25 -131 -109 -108 -188 34 -112 165 -154 252 -81
60 51 73 117 38 189 -33 70 -108 103 -182 80z m109 -63 c54 -35 55 -123 3
-167 -105 -88 -241 63 -141 156 41 40 89 43 138 11z"/>
<path d="M2950 2577 c0 -79 -1 -84 -25 -97 -38 -20 -59 -73 -45 -115 18 -54
55 -78 111 -72 42 5 49 3 75 -24 26 -27 29 -28 46 -12 18 16 17 18 -11 47 -26
27 -30 37 -25 67 7 44 -16 95 -51 111 -24 11 -25 16 -25 95 0 82 0 83 -25 83
-25 0 -25 -1 -25 -83z"/>
</g>
</svg>
